<svg width="30.000000" height="30.000000" viewBox="0 0 30 30" fill="none" xmlns="http://www.w3.org/2000/svg" xmlns:xlink="http://www.w3.org/1999/xlink">
	<desc>
			Created with Pixso.
	</desc>
	<defs>
		<clipPath id="clip262_3">
			<rect id="Frame 25" width="30.000000" height="30.000000" transform="translate(30.000000 0.000000) rotate(90.000000)" fill="white" fill-opacity="0"/>
		</clipPath>
	</defs>
	<rect id="Frame 25" width="30.000000" height="30.000000" transform="translate(30.000000 0.000000) rotate(90.000000)" fill="#FFFFFF" fill-opacity="0"/>
	<g clip-path="url(#clip262_3)">
		<path id="Rectangle 8" d="M14.63 7.85L21.74 14.96L21.03 15.67L13.92 8.56C13.72 8.36 13.72 8.04 13.92 7.85C14.11 7.65 14.43 7.65 14.63 7.85Z" fill="#000000" fill-opacity="1.000000" fill-rule="evenodd"/>
		<path id="Rectangle 8" d="M21.73 14.96L14.63 22.07C14.43 22.27 14.11 22.27 13.92 22.07C13.72 21.88 13.72 21.56 13.92 21.36L21.03 14.26L21.73 14.96Z" fill="#000000" fill-opacity="1.000000" fill-rule="evenodd"/>
		<path id="Rectangle 8" d="M10.06 7.85L17.17 14.96L16.46 15.67L9.35 8.56C9.15 8.36 9.15 8.04 9.35 7.85C9.54 7.65 9.86 7.65 10.06 7.85Z" fill="#000000" fill-opacity="1.000000" fill-rule="evenodd"/>
		<path id="Rectangle 8" d="M17.16 14.96L10.06 22.07C9.86 22.27 9.54 22.27 9.35 22.07C9.15 21.88 9.15 21.56 9.35 21.36L16.46 14.26L17.16 14.96Z" fill="#000000" fill-opacity="1.000000" fill-rule="evenodd"/>
	</g>
</svg>
