<svg width="30.000000" height="30.000000" viewBox="0 0 30 30" fill="none" xmlns="http://www.w3.org/2000/svg" xmlns:xlink="http://www.w3.org/1999/xlink">
	<desc>
			Created with Pixso.
	</desc>
	<defs>
		<clipPath id="clip262_3">
			<rect id="Frame 25" width="30.000000" height="30.000000" transform="translate(0.000000 30.000000) rotate(-90.000000)" fill="white" fill-opacity="0"/>
		</clipPath>
	</defs>
	<rect id="Frame 25" width="30.000000" height="30.000000" transform="translate(0.000000 30.000000) rotate(-90.000000)" fill="#FFFFFF" fill-opacity="0"/>
	<g clip-path="url(#clip262_3)">
		<path id="Rectangle 8" d="M15.36 22.14L8.25 15.03L8.96 14.32L16.07 21.43C16.27 21.63 16.27 21.95 16.07 22.14C15.88 22.34 15.56 22.34 15.36 22.14Z" fill="#000000" fill-opacity="1.000000" fill-rule="evenodd"/>
		<path id="Rectangle 8" d="M8.26 15.03L15.36 7.92C15.56 7.72 15.88 7.72 16.07 7.92C16.27 8.11 16.27 8.43 16.07 8.63L8.96 15.73L8.26 15.03Z" fill="#000000" fill-opacity="1.000000" fill-rule="evenodd"/>
		<path id="Rectangle 8" d="M19.93 22.14L12.82 15.03L13.53 14.32L20.64 21.43C20.84 21.63 20.84 21.95 20.64 22.14C20.45 22.34 20.13 22.34 19.93 22.14Z" fill="#000000" fill-opacity="1.000000" fill-rule="evenodd"/>
		<path id="Rectangle 8" d="M12.83 15.03L19.93 7.92C20.13 7.72 20.45 7.72 20.64 7.92C20.84 8.11 20.84 8.43 20.64 8.63L13.53 15.73L12.83 15.03Z" fill="#000000" fill-opacity="1.000000" fill-rule="evenodd"/>
	</g>
</svg>
