<svg width="32" height="32" viewBox="0 0 32 32" fill="none" xmlns="http://www.w3.org/2000/svg">
<path d="M22.6667 24.0003C22.6667 24.7367 23.2637 25.3337 24.0001 25.3337C24.7365 25.3337 25.3334 24.7367 25.3334 24.0003C25.3334 23.2639 24.7365 22.667 24.0001 22.667C23.2637 22.667 22.6667 23.2639 22.6667 24.0003Z" fill="white"/>
<path d="M14.6667 24.0003C14.6667 24.7367 15.2637 25.3337 16.0001 25.3337C16.7365 25.3337 17.3334 24.7367 17.3334 24.0003C17.3334 23.2639 16.7365 22.667 16.0001 22.667C15.2637 22.667 14.6667 23.2639 14.6667 24.0003Z" fill="white"/>
<path d="M6.66675 24.0003C6.66675 24.7367 7.2637 25.3337 8.00008 25.3337C8.73646 25.3337 9.33341 24.7367 9.33341 24.0003C9.33341 23.2639 8.73646 22.667 8.00008 22.667C7.2637 22.667 6.66675 23.2639 6.66675 24.0003Z" fill="white"/>
<path d="M22.6667 16.0003C22.6667 16.7367 23.2637 17.3337 24.0001 17.3337C24.7365 17.3337 25.3334 16.7367 25.3334 16.0003C25.3334 15.2639 24.7365 14.667 24.0001 14.667C23.2637 14.667 22.6667 15.2639 22.6667 16.0003Z" fill="white"/>
<path d="M14.6667 16.0003C14.6667 16.7367 15.2637 17.3337 16.0001 17.3337C16.7365 17.3337 17.3334 16.7367 17.3334 16.0003C17.3334 15.2639 16.7365 14.667 16.0001 14.667C15.2637 14.667 14.6667 15.2639 14.6667 16.0003Z" fill="white"/>
<path d="M6.66675 16.0003C6.66675 16.7367 7.2637 17.3337 8.00008 17.3337C8.73646 17.3337 9.33341 16.7367 9.33341 16.0003C9.33341 15.2639 8.73646 14.667 8.00008 14.667C7.2637 14.667 6.66675 15.2639 6.66675 16.0003Z" fill="white"/>
<path d="M22.6667 8.00033C22.6667 8.73671 23.2637 9.33366 24.0001 9.33366C24.7365 9.33366 25.3334 8.73671 25.3334 8.00033C25.3334 7.26395 24.7365 6.66699 24.0001 6.66699C23.2637 6.66699 22.6667 7.26395 22.6667 8.00033Z" fill="white"/>
<path d="M14.6667 8.00033C14.6667 8.73671 15.2637 9.33366 16.0001 9.33366C16.7365 9.33366 17.3334 8.73671 17.3334 8.00033C17.3334 7.26395 16.7365 6.66699 16.0001 6.66699C15.2637 6.66699 14.6667 7.26395 14.6667 8.00033Z" fill="white"/>
<path d="M6.66675 8.00033C6.66675 8.73671 7.2637 9.33366 8.00008 9.33366C8.73646 9.33366 9.33341 8.73671 9.33341 8.00033C9.33341 7.26395 8.73646 6.66699 8.00008 6.66699C7.2637 6.66699 6.66675 7.26395 6.66675 8.00033Z" fill="white"/>
<path d="M22.6667 24.0003C22.6667 24.7367 23.2637 25.3337 24.0001 25.3337C24.7365 25.3337 25.3334 24.7367 25.3334 24.0003C25.3334 23.2639 24.7365 22.667 24.0001 22.667C23.2637 22.667 22.6667 23.2639 22.6667 24.0003Z" stroke="white" stroke-linecap="round" stroke-linejoin="round"/>
<path d="M14.6667 24.0003C14.6667 24.7367 15.2637 25.3337 16.0001 25.3337C16.7365 25.3337 17.3334 24.7367 17.3334 24.0003C17.3334 23.2639 16.7365 22.667 16.0001 22.667C15.2637 22.667 14.6667 23.2639 14.6667 24.0003Z" stroke="white" stroke-linecap="round" stroke-linejoin="round"/>
<path d="M6.66675 24.0003C6.66675 24.7367 7.2637 25.3337 8.00008 25.3337C8.73646 25.3337 9.33341 24.7367 9.33341 24.0003C9.33341 23.2639 8.73646 22.667 8.00008 22.667C7.2637 22.667 6.66675 23.2639 6.66675 24.0003Z" stroke="white" stroke-linecap="round" stroke-linejoin="round"/>
<path d="M22.6667 16.0003C22.6667 16.7367 23.2637 17.3337 24.0001 17.3337C24.7365 17.3337 25.3334 16.7367 25.3334 16.0003C25.3334 15.2639 24.7365 14.667 24.0001 14.667C23.2637 14.667 22.6667 15.2639 22.6667 16.0003Z" stroke="white" stroke-linecap="round" stroke-linejoin="round"/>
<path d="M14.6667 16.0003C14.6667 16.7367 15.2637 17.3337 16.0001 17.3337C16.7365 17.3337 17.3334 16.7367 17.3334 16.0003C17.3334 15.2639 16.7365 14.667 16.0001 14.667C15.2637 14.667 14.6667 15.2639 14.6667 16.0003Z" stroke="white" stroke-linecap="round" stroke-linejoin="round"/>
<path d="M6.66675 16.0003C6.66675 16.7367 7.2637 17.3337 8.00008 17.3337C8.73646 17.3337 9.33341 16.7367 9.33341 16.0003C9.33341 15.2639 8.73646 14.667 8.00008 14.667C7.2637 14.667 6.66675 15.2639 6.66675 16.0003Z" stroke="white" stroke-linecap="round" stroke-linejoin="round"/>
<path d="M22.6667 8.00033C22.6667 8.73671 23.2637 9.33366 24.0001 9.33366C24.7365 9.33366 25.3334 8.73671 25.3334 8.00033C25.3334 7.26395 24.7365 6.66699 24.0001 6.66699C23.2637 6.66699 22.6667 7.26395 22.6667 8.00033Z" stroke="white" stroke-linecap="round" stroke-linejoin="round"/>
<path d="M14.6667 8.00033C14.6667 8.73671 15.2637 9.33366 16.0001 9.33366C16.7365 9.33366 17.3334 8.73671 17.3334 8.00033C17.3334 7.26395 16.7365 6.66699 16.0001 6.66699C15.2637 6.66699 14.6667 7.26395 14.6667 8.00033Z" stroke="white" stroke-linecap="round" stroke-linejoin="round"/>
<path d="M6.66675 8.00033C6.66675 8.73671 7.2637 9.33366 8.00008 9.33366C8.73646 9.33366 9.33341 8.73671 9.33341 8.00033C9.33341 7.26395 8.73646 6.66699 8.00008 6.66699C7.2637 6.66699 6.66675 7.26395 6.66675 8.00033Z" stroke="white" stroke-linecap="round" stroke-linejoin="round"/>
</svg>
