<svg width="30" height="30" viewBox="0 0 30 30" fill="none" xmlns="http://www.w3.org/2000/svg">
<path d="M23 8.6001C23 8.04005 22.9996 7.75981 22.8906 7.5459C22.7948 7.35774 22.6423 7.20487 22.4542 7.10899C22.2403 7 21.9597 7 21.3996 7H8.59961C8.03956 7 7.75981 7 7.5459 7.10899C7.35774 7.20487 7.20487 7.35774 7.10899 7.5459C7 7.75981 7 8.04005 7 8.6001V9.33736C7 9.58195 7 9.70433 7.02763 9.81942C7.05213 9.92146 7.09263 10.0189 7.14746 10.1084C7.20928 10.2093 7.29591 10.2959 7.46875 10.4688L12.5315 15.5315C12.7044 15.7044 12.7904 15.7904 12.8523 15.8914C12.9071 15.9808 12.9482 16.0786 12.9727 16.1807C13 16.2946 13 16.4155 13 16.6552V21.411C13 22.2682 13 22.6971 13.1805 22.9552C13.3382 23.1806 13.5814 23.331 13.8535 23.3712C14.1651 23.4172 14.5487 23.2257 15.3154 22.8424L16.1154 22.4424C16.4365 22.2819 16.5966 22.2013 16.7139 22.0815C16.8176 21.9756 16.897 21.8485 16.9453 21.7084C17 21.5499 17 21.37 17 21.011V16.6626C17 16.418 17 16.2958 17.0276 16.1807C17.0521 16.0786 17.0926 15.9808 17.1475 15.8914C17.2089 15.7911 17.2947 15.7053 17.4653 15.5347L17.4688 15.5315L22.5315 10.4688C22.7044 10.2958 22.7904 10.2093 22.8523 10.1084C22.9071 10.0189 22.9482 9.92146 22.9727 9.81942C23 9.70551 23 9.58444 23 9.3448V8.6001Z" stroke="#A8A8A8" stroke-linecap="round" stroke-linejoin="round"/>
</svg>
