<svg width="12" height="13" viewBox="0 0 12 13" fill="none" xmlns="http://www.w3.org/2000/svg">
<path d="M11.3332 2.23348C11.3332 1.86011 11.3329 1.67329 11.2603 1.53068C11.1963 1.40524 11.0947 1.30333 10.9693 1.23941C10.8267 1.16675 10.6396 1.16675 10.2662 1.16675H1.73291C1.35954 1.16675 1.17304 1.16675 1.03044 1.23941C0.904995 1.30333 0.803082 1.40524 0.739166 1.53068C0.666504 1.67329 0.666504 1.86011 0.666504 2.23348V2.72499C0.666504 2.88805 0.666504 2.96964 0.684924 3.04636C0.701255 3.11439 0.728259 3.17937 0.764811 3.23901C0.806026 3.30627 0.863776 3.36402 0.979004 3.47925L4.35416 6.85441C4.46946 6.9697 4.5268 7.02704 4.56802 7.09432C4.60458 7.15396 4.63194 7.21917 4.64827 7.28719C4.66651 7.36313 4.66651 7.44376 4.6665 7.60352V10.7741C4.6665 11.3456 4.6665 11.6315 4.78687 11.8036C4.89197 11.9538 5.05411 12.0541 5.23551 12.0809C5.44326 12.1116 5.69898 11.9839 6.21012 11.7283L6.74346 11.4617C6.9575 11.3547 7.06426 11.3009 7.14245 11.2211C7.21159 11.1505 7.26449 11.0657 7.29671 10.9723C7.33315 10.8667 7.33317 10.7467 7.33317 10.5074V7.60848C7.33317 7.44542 7.33317 7.36392 7.35159 7.28719C7.36792 7.21917 7.39493 7.15396 7.43148 7.09432C7.47243 7.02749 7.52961 6.9703 7.64338 6.85654L7.64567 6.85441L11.0208 3.47925C11.1361 3.36395 11.1935 3.30629 11.2347 3.23901C11.2712 3.17937 11.2986 3.11439 11.3149 3.04636C11.3332 2.97042 11.3332 2.88971 11.3332 2.72995V2.23348Z" stroke="#1F2022" stroke-linecap="round" stroke-linejoin="round"/>
</svg>
