<svg width="24" height="24" viewBox="0 0 24 24" fill="none" xmlns="http://www.w3.org/2000/svg">
<path d="M11.7515 2.54579C11.6903 2.54412 11.4358 2.54627 11.4213 2.54675C6.40592 2.646 2.35056 6.72337 2.2879 11.7476C2.26064 11.798 2.2439 11.8549 2.2439 11.9164C2.2439 11.98 2.26183 12.0386 2.29077 12.0903C2.40987 17.0647 6.44228 21.0842 11.4215 21.1825C11.4579 21.1837 11.494 21.1873 11.5306 21.1873C11.5401 21.1873 11.5494 21.1861 11.559 21.1861C11.5753 21.1861 11.5913 21.1873 11.6076 21.1873C16.748 21.1873 20.9299 17.0054 20.9299 11.8647C20.9301 6.77263 16.8257 2.62352 11.7515 2.54579ZM20.2047 11.5577H16.7922C16.731 8.05809 15.6309 5.10261 14.0051 3.60214C17.4922 4.61569 20.0713 7.77972 20.2047 11.5577ZM11.2488 3.27785V11.5577H6.98635C7.06886 7.13232 8.92519 3.54786 11.2488 3.27785ZM11.2488 12.2749V20.4516C8.94337 20.1835 7.09685 16.6529 6.98779 12.2749H11.2488ZM11.9663 20.4294V12.2749H16.0733C15.9667 16.5551 14.1998 20.0259 11.9663 20.4294ZM11.9663 11.5577V3.30009C14.2175 3.70689 15.9939 7.23062 16.0748 11.5577H11.9663ZM8.98139 3.67102C7.39651 5.19229 6.32915 8.11167 6.26889 11.5577H3.01015C3.14073 7.8627 5.61049 4.75392 8.98139 3.67102ZM3.01278 12.2749H6.27056C6.34996 15.6762 7.41253 18.5525 8.98163 20.0585C5.64158 18.9856 3.18497 15.9249 3.01278 12.2749ZM14.0051 20.1273C15.6149 18.6415 16.7102 15.7297 16.7908 12.2749H20.2021C20.0261 16.0074 17.4607 19.1231 14.0051 20.1273Z" fill="white"/>
</svg>
