<svg width="30" height="30" viewBox="0 0 30 30" fill="none" xmlns="http://www.w3.org/2000/svg">
<path d="M1.42857 0H0V1.42857H1.42857V0Z" fill="#1F2022"/>
<path d="M2.85714 0H1.42857V1.42857H2.85714V0Z" fill="#1F2022"/>
<path d="M4.28571 0H2.85714V1.42857H4.28571V0Z" fill="#1F2022"/>
<path d="M5.71429 0H4.28571V1.42857H5.71429V0Z" fill="#1F2022"/>
<path d="M7.14286 0H5.71429V1.42857H7.14286V0Z" fill="#1F2022"/>
<path d="M8.57143 0H7.14286V1.42857H8.57143V0Z" fill="#1F2022"/>
<path d="M10 0H8.57143V1.42857H10V0Z" fill="#1F2022"/>
<path d="M12.8571 0H11.4286V1.42857H12.8571V0Z" fill="#1F2022"/>
<path d="M21.4286 0H20V1.42857H21.4286V0Z" fill="#1F2022"/>
<path d="M22.8571 0H21.4286V1.42857H22.8571V0Z" fill="#1F2022"/>
<path d="M24.2857 0H22.8571V1.42857H24.2857V0Z" fill="#1F2022"/>
<path d="M25.7143 0H24.2857V1.42857H25.7143V0Z" fill="#1F2022"/>
<path d="M27.1429 0H25.7143V1.42857H27.1429V0Z" fill="#1F2022"/>
<path d="M28.5714 0H27.1429V1.42857H28.5714V0Z" fill="#1F2022"/>
<path d="M30 0H28.5714V1.42857H30V0Z" fill="#1F2022"/>
<path d="M1.42857 1.42857H0V2.85714H1.42857V1.42857Z" fill="#1F2022"/>
<path d="M10 1.42857H8.57143V2.85714H10V1.42857Z" fill="#1F2022"/>
<path d="M17.1429 1.42857H15.7143V2.85714H17.1429V1.42857Z" fill="#1F2022"/>
<path d="M21.4286 1.42857H20V2.85714H21.4286V1.42857Z" fill="#1F2022"/>
<path d="M30 1.42857H28.5714V2.85714H30V1.42857Z" fill="#1F2022"/>
<path d="M1.42857 2.85714H0V4.28571H1.42857V2.85714Z" fill="#1F2022"/>
<path d="M4.28571 2.85714H2.85714V4.28571H4.28571V2.85714Z" fill="#1F2022"/>
<path d="M5.71429 2.85714H4.28571V4.28571H5.71429V2.85714Z" fill="#1F2022"/>
<path d="M7.14286 2.85714H5.71429V4.28571H7.14286V2.85714Z" fill="#1F2022"/>
<path d="M10 2.85714H8.57143V4.28571H10V2.85714Z" fill="#1F2022"/>
<path d="M12.8571 2.85714H11.4286V4.28571H12.8571V2.85714Z" fill="#1F2022"/>
<path d="M15.7143 2.85714H14.2857V4.28571H15.7143L15.7143 2.85714Z" fill="#1F2022"/>
<path d="M18.5714 2.85714H17.1429V4.28571H18.5714V2.85714Z" fill="#1F2022"/>
<path d="M21.4286 2.85714H20V4.28571H21.4286V2.85714Z" fill="#1F2022"/>
<path d="M24.2857 2.85714H22.8571V4.28571H24.2857V2.85714Z" fill="#1F2022"/>
<path d="M25.7143 2.85714H24.2857V4.28571H25.7143V2.85714Z" fill="#1F2022"/>
<path d="M27.1429 2.85714H25.7143V4.28571H27.1429V2.85714Z" fill="#1F2022"/>
<path d="M30 2.85714H28.5714V4.28571H30V2.85714Z" fill="#1F2022"/>
<path d="M1.42857 4.28571H0V5.71429H1.42857V4.28571Z" fill="#1F2022"/>
<path d="M4.28571 4.28571H2.85714V5.71429H4.28571V4.28571Z" fill="#1F2022"/>
<path d="M5.71429 4.28571H4.28571V5.71429H5.71429V4.28571Z" fill="#1F2022"/>
<path d="M7.14286 4.28571H5.71429V5.71429H7.14286V4.28571Z" fill="#1F2022"/>
<path d="M10 4.28571H8.57143V5.71429H10V4.28571Z" fill="#1F2022"/>
<path d="M12.8571 4.28571H11.4286V5.71429H12.8571V4.28571Z" fill="#1F2022"/>
<path d="M14.2857 4.28571H12.8571V5.71429H14.2857L14.2857 4.28571Z" fill="#1F2022"/>
<path d="M17.1429 4.28571H15.7143L15.7143 5.71429H17.1429V4.28571Z" fill="#1F2022"/>
<path d="M21.4286 4.28571H20V5.71429H21.4286V4.28571Z" fill="#1F2022"/>
<path d="M24.2857 4.28571H22.8571V5.71429H24.2857V4.28571Z" fill="#1F2022"/>
<path d="M25.7143 4.28571H24.2857V5.71429H25.7143V4.28571Z" fill="#1F2022"/>
<path d="M27.1429 4.28571H25.7143V5.71429H27.1429V4.28571Z" fill="#1F2022"/>
<path d="M30 4.28571H28.5714V5.71429H30V4.28571Z" fill="#1F2022"/>
<path d="M1.42857 5.71429H0V7.14286H1.42857V5.71429Z" fill="#1F2022"/>
<path d="M4.28571 5.71429H2.85714V7.14286H4.28571V5.71429Z" fill="#1F2022"/>
<path d="M5.71429 5.71429H4.28571V7.14286H5.71429V5.71429Z" fill="#1F2022"/>
<path d="M7.14286 5.71429H5.71429V7.14286H7.14286V5.71429Z" fill="#1F2022"/>
<path d="M10 5.71429H8.57143V7.14286H10V5.71429Z" fill="#1F2022"/>
<path d="M12.8571 5.71429H11.4286V7.14286H12.8571V5.71429Z" fill="#1F2022"/>
<path d="M14.2857 5.71429H12.8571V7.14286H14.2857V5.71429Z" fill="#1F2022"/>
<path d="M17.1429 5.71429H15.7143V7.14286H17.1429V5.71429Z" fill="#1F2022"/>
<path d="M21.4286 5.71429H20V7.14286H21.4286V5.71429Z" fill="#1F2022"/>
<path d="M24.2857 5.71429H22.8571V7.14286H24.2857V5.71429Z" fill="#1F2022"/>
<path d="M25.7143 5.71429H24.2857V7.14286H25.7143V5.71429Z" fill="#1F2022"/>
<path d="M27.1429 5.71429H25.7143V7.14286H27.1429V5.71429Z" fill="#1F2022"/>
<path d="M30 5.71429H28.5714V7.14286H30V5.71429Z" fill="#1F2022"/>
<path d="M1.42857 7.14286H0V8.57143H1.42857V7.14286Z" fill="#1F2022"/>
<path d="M10 7.14286H8.57143V8.57143H10V7.14286Z" fill="#1F2022"/>
<path d="M12.8571 7.14286H11.4286V8.57143H12.8571V7.14286Z" fill="#1F2022"/>
<path d="M14.2857 7.14286H12.8571V8.57143H14.2857V7.14286Z" fill="#1F2022"/>
<path d="M15.7143 7.14286H14.2857V8.57143H15.7143L15.7143 7.14286Z" fill="#1F2022"/>
<path d="M21.4286 7.14286H20V8.57143H21.4286V7.14286Z" fill="#1F2022"/>
<path d="M30 7.14286H28.5714V8.57143H30V7.14286Z" fill="#1F2022"/>
<path d="M1.42857 8.57143H0V10H1.42857V8.57143Z" fill="#1F2022"/>
<path d="M2.85714 8.57143H1.42857V10H2.85714V8.57143Z" fill="#1F2022"/>
<path d="M4.28571 8.57143H2.85714V10H4.28571V8.57143Z" fill="#1F2022"/>
<path d="M5.71429 8.57143H4.28571V10H5.71429V8.57143Z" fill="#1F2022"/>
<path d="M7.14286 8.57143H5.71429V10H7.14286V8.57143Z" fill="#1F2022"/>
<path d="M8.57143 8.57143H7.14286V10H8.57143V8.57143Z" fill="#1F2022"/>
<path d="M10 8.57143H8.57143V10H10V8.57143Z" fill="#1F2022"/>
<path d="M12.8571 8.57143H11.4286V10H12.8571V8.57143Z" fill="#1F2022"/>
<path d="M15.7143 8.57143H14.2857L14.2857 10H15.7143V8.57143Z" fill="#1F2022"/>
<path d="M18.5714 8.57143H17.1429V10H18.5714V8.57143Z" fill="#1F2022"/>
<path d="M21.4286 8.57143H20V10H21.4286V8.57143Z" fill="#1F2022"/>
<path d="M22.8571 8.57143H21.4286V10H22.8571V8.57143Z" fill="#1F2022"/>
<path d="M24.2857 8.57143H22.8571V10H24.2857V8.57143Z" fill="#1F2022"/>
<path d="M25.7143 8.57143H24.2857V10H25.7143V8.57143Z" fill="#1F2022"/>
<path d="M27.1429 8.57143H25.7143V10H27.1429V8.57143Z" fill="#1F2022"/>
<path d="M28.5714 8.57143H27.1429V10H28.5714V8.57143Z" fill="#1F2022"/>
<path d="M30 8.57143H28.5714V10H30V8.57143Z" fill="#1F2022"/>
<path d="M14.2857 10H12.8571L12.8571 11.4286H14.2857L14.2857 10Z" fill="#1F2022"/>
<path d="M17.1429 10H15.7143L15.7143 11.4286H17.1429V10Z" fill="#1F2022"/>
<path d="M4.28571 11.4286H2.85714V12.8571H4.28571V11.4286Z" fill="#1F2022"/>
<path d="M5.71429 11.4286H4.28571V12.8571H5.71429V11.4286Z" fill="#1F2022"/>
<path d="M7.14286 11.4286H5.71429V12.8571H7.14286V11.4286Z" fill="#1F2022"/>
<path d="M8.57143 11.4286H7.14286V12.8571H8.57143V11.4286Z" fill="#1F2022"/>
<path d="M10 11.4286H8.57143V12.8571H10V11.4286Z" fill="#1F2022"/>
<path d="M11.4286 11.4286H10V12.8571H11.4286V11.4286Z" fill="#1F2022"/>
<path d="M15.7143 11.4286H14.2857L14.2857 12.8571H15.7143L15.7143 11.4286Z" fill="#1F2022"/>
<path d="M17.1429 11.4286H15.7143L15.7143 12.8571H17.1429V11.4286Z" fill="#1F2022"/>
<path d="M18.5714 11.4286L17.1429 11.4286V12.8571H18.5714V11.4286Z" fill="#1F2022"/>
<path d="M20 11.4286H18.5714V12.8571H20V11.4286Z" fill="#1F2022"/>
<path d="M22.8571 11.4286H21.4286V12.8571H22.8571V11.4286Z" fill="#1F2022"/>
<path d="M24.2857 11.4286H22.8571V12.8571H24.2857V11.4286Z" fill="#1F2022"/>
<path d="M25.7143 11.4286H24.2857V12.8571H25.7143V11.4286Z" fill="#1F2022"/>
<path d="M27.1429 11.4286H25.7143V12.8571H27.1429V11.4286Z" fill="#1F2022"/>
<path d="M30 11.4286H28.5714V12.8571H30V11.4286Z" fill="#1F2022"/>
<path d="M1.42857 12.8571H0V14.2857H1.42857V12.8571Z" fill="#1F2022"/>
<path d="M2.85714 12.8571L1.42857 12.8571V14.2857H2.85714V12.8571Z" fill="#1F2022"/>
<path d="M4.28571 12.8571H2.85714V14.2857H4.28571V12.8571Z" fill="#1F2022"/>
<path d="M7.14286 12.8571H5.71429V14.2857H7.14286V12.8571Z" fill="#1F2022"/>
<path d="M8.57143 12.8571H7.14286V14.2857H8.57143V12.8571Z" fill="#1F2022"/>
<path d="M12.8571 12.8571L11.4286 12.8571L11.4286 14.2857H12.8571V12.8571Z" fill="#1F2022"/>
<path d="M15.7143 12.8571H14.2857V14.2857H15.7143V12.8571Z" fill="#1F2022"/>
<path d="M17.1429 12.8571H15.7143V14.2857H17.1429V12.8571Z" fill="#1F2022"/>
<path d="M22.8571 12.8571H21.4286V14.2857H22.8571V12.8571Z" fill="#1F2022"/>
<path d="M24.2857 12.8571H22.8571V14.2857H24.2857V12.8571Z" fill="#1F2022"/>
<path d="M27.1429 12.8571H25.7143V14.2857H27.1429V12.8571Z" fill="#1F2022"/>
<path d="M30 12.8571H28.5714V14.2857H30V12.8571Z" fill="#1F2022"/>
<path d="M1.42857 14.2857H0V15.7143H1.42857V14.2857Z" fill="#1F2022"/>
<path d="M4.28571 14.2857H2.85714V15.7143H4.28571V14.2857Z" fill="#1F2022"/>
<path d="M5.71429 14.2857H4.28571V15.7143H5.71429V14.2857Z" fill="#1F2022"/>
<path d="M7.14286 14.2857H5.71429V15.7143H7.14286V14.2857Z" fill="#1F2022"/>
<path d="M8.57143 14.2857H7.14286V15.7143H8.57143V14.2857Z" fill="#1F2022"/>
<path d="M10 14.2857L8.57143 14.2857V15.7143H10V14.2857Z" fill="#1F2022"/>
<path d="M15.7143 14.2857H14.2857V15.7143H15.7143V14.2857Z" fill="#1F2022"/>
<path d="M17.1429 14.2857H15.7143V15.7143H17.1429V14.2857Z" fill="#1F2022"/>
<path d="M22.8571 14.2857H21.4286V15.7143H22.8571V14.2857Z" fill="#1F2022"/>
<path d="M25.7143 14.2857H24.2857V15.7143H25.7143V14.2857Z" fill="#1F2022"/>
<path d="M27.1429 14.2857H25.7143V15.7143H27.1429V14.2857Z" fill="#1F2022"/>
<path d="M28.5714 14.2857H27.1429V15.7143H28.5714V14.2857Z" fill="#1F2022"/>
<path d="M30 14.2857H28.5714V15.7143H30V14.2857Z" fill="#1F2022"/>
<path d="M2.85714 15.7143H1.42857V17.1429H2.85714V15.7143Z" fill="#1F2022"/>
<path d="M5.71429 15.7143H4.28571V17.1429H5.71429V15.7143Z" fill="#1F2022"/>
<path d="M8.57143 15.7143H7.14286V17.1429H8.57143V15.7143Z" fill="#1F2022"/>
<path d="M12.8571 15.7143H11.4286V17.1429H12.8571V15.7143Z" fill="#1F2022"/>
<path d="M14.2857 15.7143L12.8571 15.7143V17.1429H14.2857L14.2857 15.7143Z" fill="#1F2022"/>
<path d="M17.1429 15.7143H15.7143L15.7143 17.1429H17.1429V15.7143Z" fill="#1F2022"/>
<path d="M21.4286 15.7143L20 15.7143V17.1429H21.4286V15.7143Z" fill="#1F2022"/>
<path d="M24.2857 15.7143H22.8571V17.1429H24.2857V15.7143Z" fill="#1F2022"/>
<path d="M25.7143 15.7143H24.2857V17.1429H25.7143V15.7143Z" fill="#1F2022"/>
<path d="M28.5714 15.7143H27.1429V17.1429H28.5714V15.7143Z" fill="#1F2022"/>
<path d="M1.42857 17.1429H0V18.5714H1.42857V17.1429Z" fill="#1F2022"/>
<path d="M2.85714 17.1429H1.42857V18.5714H2.85714V17.1429Z" fill="#1F2022"/>
<path d="M4.28571 17.1429H2.85714V18.5714H4.28571V17.1429Z" fill="#1F2022"/>
<path d="M7.14286 17.1429H5.71429V18.5714H7.14286V17.1429Z" fill="#1F2022"/>
<path d="M10 17.1429H8.57143V18.5714H10V17.1429Z" fill="#1F2022"/>
<path d="M14.2857 17.1429H12.8571L12.8571 18.5714H14.2857V17.1429Z" fill="#1F2022"/>
<path d="M15.7143 17.1429H14.2857V18.5714H15.7143L15.7143 17.1429Z" fill="#1F2022"/>
<path d="M17.1429 17.1429H15.7143L15.7143 18.5714H17.1429V17.1429Z" fill="#1F2022"/>
<path d="M18.5714 17.1429H17.1429V18.5714H18.5714V17.1429Z" fill="#1F2022"/>
<path d="M20 17.1429H18.5714V18.5714H20V17.1429Z" fill="#1F2022"/>
<path d="M25.7143 17.1429H24.2857V18.5714H25.7143V17.1429Z" fill="#1F2022"/>
<path d="M27.1429 17.1429H25.7143V18.5714H27.1429V17.1429Z" fill="#1F2022"/>
<path d="M28.5714 17.1429H27.1429V18.5714H28.5714V17.1429Z" fill="#1F2022"/>
<path d="M30 17.1429H28.5714V18.5714H30V17.1429Z" fill="#1F2022"/>
<path d="M14.2857 18.5714H12.8571V20H14.2857V18.5714Z" fill="#1F2022"/>
<path d="M17.1429 18.5714H15.7143L15.7143 20H17.1429V18.5714Z" fill="#1F2022"/>
<path d="M21.4286 18.5714H20V20H21.4286V18.5714Z" fill="#1F2022"/>
<path d="M24.2857 18.5714H22.8571V20H24.2857V18.5714Z" fill="#1F2022"/>
<path d="M25.7143 18.5714H24.2857V20H25.7143V18.5714Z" fill="#1F2022"/>
<path d="M28.5714 18.5714H27.1429V20H28.5714V18.5714Z" fill="#1F2022"/>
<path d="M1.42857 20H0V21.4286H1.42857V20Z" fill="#1F2022"/>
<path d="M2.85714 20H1.42857V21.4286H2.85714V20Z" fill="#1F2022"/>
<path d="M4.28571 20H2.85714V21.4286H4.28571V20Z" fill="#1F2022"/>
<path d="M5.71429 20H4.28571V21.4286H5.71429V20Z" fill="#1F2022"/>
<path d="M7.14286 20H5.71429V21.4286H7.14286V20Z" fill="#1F2022"/>
<path d="M8.57143 20H7.14286V21.4286H8.57143V20Z" fill="#1F2022"/>
<path d="M10 20H8.57143V21.4286H10V20Z" fill="#1F2022"/>
<path d="M12.8571 20H11.4286V21.4286H12.8571L12.8571 20Z" fill="#1F2022"/>
<path d="M14.2857 20H12.8571L12.8571 21.4286H14.2857V20Z" fill="#1F2022"/>
<path d="M15.7143 20H14.2857V21.4286H15.7143L15.7143 20Z" fill="#1F2022"/>
<path d="M17.1429 20H15.7143L15.7143 21.4286H17.1429V20Z" fill="#1F2022"/>
<path d="M25.7143 20H24.2857V21.4286H25.7143V20Z" fill="#1F2022"/>
<path d="M27.1429 20H25.7143V21.4286H27.1429V20Z" fill="#1F2022"/>
<path d="M28.5714 20H27.1429V21.4286H28.5714V20Z" fill="#1F2022"/>
<path d="M1.42857 21.4286H0V22.8571H1.42857V21.4286Z" fill="#1F2022"/>
<path d="M10 21.4286H8.57143V22.8571H10V21.4286Z" fill="#1F2022"/>
<path d="M12.8571 21.4286H11.4286V22.8571H12.8571V21.4286Z" fill="#1F2022"/>
<path d="M15.7143 21.4286H14.2857L14.2857 22.8571H15.7143V21.4286Z" fill="#1F2022"/>
<path d="M18.5714 21.4286H17.1429V22.8571H18.5714V21.4286Z" fill="#1F2022"/>
<path d="M20 21.4286H18.5714V22.8571H20V21.4286Z" fill="#1F2022"/>
<path d="M22.8571 21.4286H21.4286V22.8571H22.8571V21.4286Z" fill="#1F2022"/>
<path d="M25.7143 21.4286H24.2857V22.8571H25.7143V21.4286Z" fill="#1F2022"/>
<path d="M27.1429 21.4286H25.7143V22.8571H27.1429V21.4286Z" fill="#1F2022"/>
<path d="M30 21.4286H28.5714V22.8571H30V21.4286Z" fill="#1F2022"/>
<path d="M1.42857 22.8571H0V24.2857H1.42857V22.8571Z" fill="#1F2022"/>
<path d="M4.28571 22.8571H2.85714V24.2857H4.28571V22.8571Z" fill="#1F2022"/>
<path d="M5.71429 22.8571H4.28571V24.2857H5.71429V22.8571Z" fill="#1F2022"/>
<path d="M7.14286 22.8571H5.71429V24.2857H7.14286V22.8571Z" fill="#1F2022"/>
<path d="M10 22.8571H8.57143V24.2857H10V22.8571Z" fill="#1F2022"/>
<path d="M12.8571 22.8571H11.4286V24.2857H12.8571V22.8571Z" fill="#1F2022"/>
<path d="M21.4286 22.8571H20V24.2857H21.4286V22.8571Z" fill="#1F2022"/>
<path d="M22.8571 22.8571H21.4286V24.2857H22.8571V22.8571Z" fill="#1F2022"/>
<path d="M24.2857 22.8571H22.8571V24.2857H24.2857V22.8571Z" fill="#1F2022"/>
<path d="M28.5714 22.8571H27.1429V24.2857H28.5714V22.8571Z" fill="#1F2022"/>
<path d="M30 22.8571H28.5714V24.2857H30V22.8571Z" fill="#1F2022"/>
<path d="M1.42857 24.2857H0V25.7143H1.42857V24.2857Z" fill="#1F2022"/>
<path d="M4.28571 24.2857H2.85714V25.7143H4.28571V24.2857Z" fill="#1F2022"/>
<path d="M5.71429 24.2857H4.28571V25.7143H5.71429V24.2857Z" fill="#1F2022"/>
<path d="M7.14286 24.2857H5.71429V25.7143H7.14286V24.2857Z" fill="#1F2022"/>
<path d="M10 24.2857H8.57143V25.7143H10V24.2857Z" fill="#1F2022"/>
<path d="M12.8571 24.2857H11.4286V25.7143H12.8571V24.2857Z" fill="#1F2022"/>
<path d="M14.2857 24.2857H12.8571V25.7143H14.2857V24.2857Z" fill="#1F2022"/>
<path d="M17.1429 24.2857H15.7143V25.7143H17.1429V24.2857Z" fill="#1F2022"/>
<path d="M20 24.2857H18.5714V25.7143H20V24.2857Z" fill="#1F2022"/>
<path d="M21.4286 24.2857H20V25.7143H21.4286V24.2857Z" fill="#1F2022"/>
<path d="M22.8571 24.2857H21.4286V25.7143H22.8571V24.2857Z" fill="#1F2022"/>
<path d="M27.1429 24.2857H25.7143V25.7143H27.1429V24.2857Z" fill="#1F2022"/>
<path d="M28.5714 24.2857H27.1429V25.7143H28.5714V24.2857Z" fill="#1F2022"/>
<path d="M1.42857 25.7143H0V27.1429H1.42857V25.7143Z" fill="#1F2022"/>
<path d="M4.28571 25.7143H2.85714V27.1429H4.28571V25.7143Z" fill="#1F2022"/>
<path d="M5.71429 25.7143H4.28571V27.1429H5.71429V25.7143Z" fill="#1F2022"/>
<path d="M7.14286 25.7143H5.71429V27.1429H7.14286V25.7143Z" fill="#1F2022"/>
<path d="M10 25.7143H8.57143V27.1429H10V25.7143Z" fill="#1F2022"/>
<path d="M12.8571 25.7143H11.4286V27.1429H12.8571V25.7143Z" fill="#1F2022"/>
<path d="M14.2857 25.7143H12.8571V27.1429H14.2857V25.7143Z" fill="#1F2022"/>
<path d="M15.7143 25.7143H14.2857V27.1429H15.7143L15.7143 25.7143Z" fill="#1F2022"/>
<path d="M17.1429 25.7143H15.7143L15.7143 27.1429H17.1429V25.7143Z" fill="#1F2022"/>
<path d="M22.8571 25.7143H21.4286V27.1429H22.8571V25.7143Z" fill="#1F2022"/>
<path d="M25.7143 25.7143H24.2857V27.1429H25.7143V25.7143Z" fill="#1F2022"/>
<path d="M28.5714 25.7143H27.1429V27.1429H28.5714V25.7143Z" fill="#1F2022"/>
<path d="M1.42857 27.1429H0V28.5714H1.42857V27.1429Z" fill="#1F2022"/>
<path d="M10 27.1429H8.57143V28.5714H10V27.1429Z" fill="#1F2022"/>
<path d="M14.2857 27.1429H12.8571L12.8571 28.5714H14.2857V27.1429Z" fill="#1F2022"/>
<path d="M15.7143 27.1429H14.2857V28.5714H15.7143V27.1429Z" fill="#1F2022"/>
<path d="M17.1429 27.1429H15.7143V28.5714H17.1429V27.1429Z" fill="#1F2022"/>
<path d="M20 27.1429H18.5714V28.5714H20V27.1429Z" fill="#1F2022"/>
<path d="M21.4286 27.1429H20V28.5714H21.4286V27.1429Z" fill="#1F2022"/>
<path d="M22.8571 27.1429H21.4286V28.5714H22.8571V27.1429Z" fill="#1F2022"/>
<path d="M24.2857 27.1429H22.8571V28.5714H24.2857V27.1429Z" fill="#1F2022"/>
<path d="M30 27.1429H28.5714V28.5714H30V27.1429Z" fill="#1F2022"/>
<path d="M1.42857 28.5714H0V30H1.42857V28.5714Z" fill="#1F2022"/>
<path d="M2.85714 28.5714H1.42857V30H2.85714V28.5714Z" fill="#1F2022"/>
<path d="M4.28571 28.5714H2.85714V30H4.28571V28.5714Z" fill="#1F2022"/>
<path d="M5.71429 28.5714H4.28571V30H5.71429V28.5714Z" fill="#1F2022"/>
<path d="M7.14286 28.5714H5.71429V30H7.14286V28.5714Z" fill="#1F2022"/>
<path d="M8.57143 28.5714H7.14286V30H8.57143V28.5714Z" fill="#1F2022"/>
<path d="M10 28.5714H8.57143V30H10V28.5714Z" fill="#1F2022"/>
<path d="M14.2857 28.5714H12.8571V30H14.2857V28.5714Z" fill="#1F2022"/>
<path d="M17.1429 28.5714H15.7143L15.7143 30H17.1429V28.5714Z" fill="#1F2022"/>
</svg>
