<svg width="44" height="44" viewBox="0 0 44 44" fill="none" xmlns="http://www.w3.org/2000/svg">
<path d="M34.2466 17.4869L33.7095 17.1881C33.6261 17.1417 33.5851 17.1184 33.5448 17.0943C33.1443 16.8544 32.8067 16.5229 32.5603 16.1263C32.5355 16.0864 32.5122 16.0445 32.4644 15.9618C32.4167 15.8792 32.3925 15.8374 32.3703 15.7959C32.1493 15.3833 32.0298 14.9235 32.0227 14.4555C32.0219 14.4085 32.0221 14.3604 32.0237 14.2648L32.0342 13.6411C32.051 12.643 32.0594 12.1424 31.9192 11.6931C31.7946 11.2941 31.5861 10.9265 31.3078 10.6146C30.9932 10.262 30.5577 10.0105 29.6857 9.508L28.9615 9.09065C28.092 8.5896 27.6571 8.33899 27.1955 8.24345C26.7871 8.15893 26.3656 8.16284 25.9587 8.25419C25.4994 8.35729 25.07 8.61443 24.2116 9.12842L24.2067 9.13076L23.6878 9.44148C23.6057 9.49062 23.5642 9.51538 23.5231 9.53825C23.1149 9.76517 22.6593 9.89064 22.1925 9.90562C22.1455 9.90713 22.0976 9.90713 22.002 9.90713C21.9069 9.90713 21.857 9.90713 21.81 9.90562C21.3423 9.89058 20.8857 9.76442 20.4769 9.53656C20.4357 9.5136 20.395 9.48863 20.3128 9.43927L19.7905 9.12574C18.9262 8.60688 18.4935 8.34706 18.0317 8.24345C17.6231 8.15178 17.2002 8.14924 16.7903 8.23486C16.3275 8.33152 15.8925 8.58399 15.0225 9.08893L15.0186 9.09065L14.3034 9.50577L14.2955 9.51061C13.4333 10.011 13.0012 10.2618 12.6892 10.613C12.4124 10.9246 12.2054 11.2915 12.0816 11.6895C11.9416 12.1394 11.949 12.6411 11.9659 13.6439L11.9764 14.2667C11.978 14.3611 11.9807 14.4079 11.98 14.4543C11.9731 14.9233 11.852 15.384 11.6303 15.7974C11.6084 15.8382 11.5848 15.8791 11.5376 15.9608C11.4904 16.0425 11.4676 16.0831 11.4431 16.1225C11.1956 16.5213 10.8565 16.8547 10.4535 17.095C10.4136 17.1188 10.3716 17.1416 10.289 17.1874L9.75874 17.4813C8.87644 17.9702 8.43539 18.2149 8.11446 18.5631C7.83056 18.8711 7.61609 19.2365 7.48517 19.6345C7.33718 20.0843 7.3373 20.5887 7.33959 21.5974L7.34147 22.4219C7.34374 23.4239 7.34687 23.9245 7.49518 24.3713C7.6264 24.7666 7.83931 25.1298 8.12163 25.436C8.44074 25.7821 8.8774 26.0252 9.75301 26.5123L10.2786 26.8047C10.368 26.8545 10.413 26.879 10.4562 26.905C10.8556 27.1455 11.192 27.478 11.4374 27.8744C11.4639 27.9173 11.4893 27.9617 11.5402 28.0506C11.5905 28.1384 11.6162 28.1823 11.6394 28.2263C11.8545 28.6336 11.9697 29.0861 11.9776 29.5466C11.9784 29.5964 11.9777 29.6467 11.976 29.7479L11.9659 30.3456C11.9489 31.3518 11.9415 31.8555 12.0823 32.3066C12.2069 32.7057 12.4151 33.0732 12.6935 33.3852C13.0081 33.7378 13.4443 33.9892 14.3163 34.4916L15.0404 34.9089C15.9099 35.41 16.3445 35.6603 16.8061 35.7558C17.2145 35.8403 17.6362 35.837 18.0431 35.7457C18.503 35.6424 18.934 35.3844 19.7948 34.869L20.3137 34.5582C20.3958 34.5091 20.4374 34.4844 20.4785 34.4615C20.8867 34.2346 21.3419 34.1085 21.8086 34.0935C21.8556 34.092 21.9035 34.092 21.9992 34.092C22.0951 34.092 22.1429 34.092 22.19 34.0935C22.6578 34.1086 23.1157 34.2351 23.5245 34.463C23.5605 34.483 23.5965 34.5047 23.6598 34.5427L24.2115 34.8739C25.0758 35.3928 25.5077 35.6519 25.9695 35.7555C26.3781 35.8472 26.8013 35.8509 27.2112 35.7653C27.6739 35.6687 28.1098 35.4157 28.9793 34.911L29.7053 34.4897C30.568 33.989 31.0006 33.7379 31.3127 33.3866C31.5895 33.075 31.7967 32.7082 31.9206 32.3102C32.0596 31.8636 32.0512 31.3658 32.0346 30.3774L32.0237 29.7328C32.0221 29.6385 32.0219 29.5916 32.0226 29.5452C32.0296 29.0763 32.1487 28.6152 32.3703 28.2018C32.3922 28.161 32.416 28.1198 32.463 28.0384C32.5102 27.9567 32.5346 27.916 32.5591 27.8766C32.8066 27.4779 33.1461 27.1442 33.5491 26.9038C33.5885 26.8803 33.629 26.8579 33.7096 26.8132L33.7124 26.8119L34.2427 26.5181C35.125 26.0291 35.5669 25.7842 35.8878 25.436C36.1717 25.1279 36.3859 24.763 36.5168 24.3651C36.6639 23.9179 36.6628 23.4165 36.6605 22.4195L36.6586 21.5774C36.6563 20.5754 36.6551 20.0748 36.5068 19.628C36.3756 19.2328 36.1615 18.8695 35.8792 18.5633C35.5603 18.2176 35.1231 17.9743 34.2492 17.4882L34.2466 17.4869Z" stroke="#1F2022" stroke-linecap="round" stroke-linejoin="round"/>
<path d="M16.1339 21.9999C16.1339 25.24 18.7605 27.8666 22.0005 27.8666C25.2406 27.8666 27.8672 25.24 27.8672 21.9999C27.8672 18.7598 25.2406 16.1332 22.0005 16.1332C18.7605 16.1332 16.1339 18.7598 16.1339 21.9999Z" stroke="#1F2022" stroke-linecap="round" stroke-linejoin="round"/>
</svg>
