<svg width="30" height="30" viewBox="0 0 30 30" fill="none" xmlns="http://www.w3.org/2000/svg">
<path d="M23.3499 11.9229L22.9837 11.7192C22.9269 11.6876 22.8989 11.6717 22.8714 11.6552C22.5983 11.4917 22.3682 11.2656 22.2002 10.9952C22.1833 10.968 22.1674 10.9395 22.1348 10.8831C22.1023 10.8268 22.0858 10.7982 22.0706 10.77C21.92 10.4887 21.8385 10.1752 21.8336 9.85606C21.8331 9.82398 21.8332 9.79121 21.8343 9.72604L21.8415 9.30078C21.8529 8.62025 21.8587 8.27894 21.763 7.97262C21.6781 7.70053 21.536 7.44993 21.3462 7.23725C21.1317 6.99685 20.8347 6.82534 20.2402 6.48276L19.7464 6.1982C19.1536 5.85658 18.8571 5.68571 18.5423 5.62057C18.2639 5.56294 17.9765 5.56561 17.6991 5.62789C17.3859 5.69819 17.0931 5.87351 16.5079 6.22396L16.5045 6.22555L16.1507 6.43741C16.0948 6.47091 16.0665 6.48779 16.0384 6.50338C15.7601 6.6581 15.4495 6.74365 15.1312 6.75387C15.0992 6.7549 15.0665 6.7549 15.0013 6.7549C14.9365 6.7549 14.9024 6.7549 14.8704 6.75387C14.5515 6.74361 14.2402 6.65759 13.9615 6.50224C13.9334 6.48658 13.9056 6.46956 13.8496 6.4359L13.4935 6.22213C12.9042 5.86836 12.6091 5.69121 12.2943 5.62057C12.0157 5.55807 11.7274 5.55634 11.4479 5.61471C11.1324 5.68062 10.8358 5.85276 10.2426 6.19703L10.2399 6.1982L9.75228 6.48124L9.74688 6.48454C9.15904 6.82572 8.86441 6.99672 8.6517 7.23614C8.46294 7.4486 8.32185 7.69881 8.2374 7.97018C8.14194 8.27691 8.14703 8.61896 8.15853 9.3027L8.16568 9.72736C8.16676 9.79166 8.16864 9.82362 8.16817 9.85525C8.16343 10.175 8.08086 10.4891 7.92974 10.771C7.9148 10.7988 7.8987 10.8267 7.86654 10.8824C7.83436 10.9381 7.81877 10.9658 7.80209 10.9927C7.63336 11.2645 7.40214 11.4919 7.12733 11.6557C7.10015 11.6719 7.0715 11.6875 7.01521 11.7187L6.65365 11.9191C6.05208 12.2524 5.75137 12.4193 5.53256 12.6567C5.33898 12.8667 5.19275 13.1158 5.10349 13.3872C5.00259 13.6939 5.00267 14.0378 5.00424 14.7255L5.00551 15.2877C5.00706 15.9708 5.00919 16.3122 5.11032 16.6168C5.19979 16.8863 5.34495 17.134 5.53744 17.3427C5.75502 17.5787 6.05274 17.7445 6.64974 18.0766L7.00808 18.276C7.06907 18.3099 7.09976 18.3266 7.12917 18.3444C7.40148 18.5083 7.63089 18.735 7.79818 19.0053C7.81625 19.0345 7.8336 19.0648 7.8683 19.1255C7.90256 19.1853 7.92009 19.2152 7.93594 19.2452C8.08261 19.5229 8.16114 19.8315 8.16649 20.1455C8.16707 20.1794 8.16658 20.2137 8.16541 20.2827L8.15853 20.6902C8.14695 21.3763 8.1419 21.7197 8.23792 22.0273C8.32287 22.2994 8.46484 22.55 8.65463 22.7627C8.86915 23.0031 9.16655 23.1745 9.76107 23.5171L10.2548 23.8015C10.8476 24.1432 11.1439 24.3138 11.4587 24.379C11.7371 24.4366 12.0246 24.4344 12.3021 24.3721C12.6157 24.3017 12.9095 24.1258 13.4964 23.7743L13.8502 23.5625C13.9062 23.5289 13.9346 23.5121 13.9626 23.4965C14.2409 23.3418 14.5512 23.2558 14.8695 23.2456C14.9015 23.2446 14.9342 23.2446 14.9994 23.2446C15.0648 23.2446 15.0974 23.2446 15.1295 23.2456C15.4484 23.2559 15.7607 23.3422 16.0394 23.4975C16.0639 23.5112 16.0885 23.526 16.1316 23.5519L16.5078 23.7777C17.0971 24.1315 17.3916 24.3081 17.7065 24.3788C17.985 24.4413 18.2736 24.4438 18.5531 24.3855C18.8685 24.3196 19.1657 24.1471 19.7586 23.803L20.2536 23.5157C20.8418 23.1743 21.1367 23.0031 21.3495 22.7636C21.5383 22.5512 21.6796 22.3011 21.764 22.0297C21.8588 21.7252 21.8531 21.3858 21.8417 20.7119L21.8343 20.2724C21.8332 20.2081 21.8331 20.1761 21.8336 20.1445C21.8383 19.8247 21.9195 19.5104 22.0706 19.2286C22.0856 19.2007 22.1018 19.1726 22.1338 19.1171C22.166 19.0615 22.1827 19.0337 22.1994 19.0068C22.3681 18.7349 22.5995 18.5074 22.8744 18.3435C22.9012 18.3275 22.9289 18.3122 22.9838 18.2818L22.9857 18.2809L23.3472 18.0805C23.9488 17.7472 24.2501 17.5801 24.4689 17.3427C24.6625 17.1327 24.8085 16.8839 24.8978 16.6126C24.9981 16.3077 24.9973 15.9658 24.9958 15.2861L24.9945 14.7119C24.9929 14.0287 24.9921 13.6874 24.891 13.3828C24.8015 13.1133 24.6555 12.8656 24.463 12.6568C24.2457 12.4211 23.9475 12.2553 23.3517 11.9238L23.3499 11.9229Z" stroke="white" stroke-linecap="round" stroke-linejoin="round"/>
<path d="M11.0003 15C11.0003 17.2091 12.7912 19 15.0003 19C17.2095 19 19.0003 17.2091 19.0003 15C19.0003 12.7908 17.2095 11 15.0003 11C12.7912 11 11.0003 12.7908 11.0003 15Z" stroke="white" stroke-linecap="round" stroke-linejoin="round"/>
</svg>
