<svg width="48" height="14" viewBox="0 0 48 14" fill="none" xmlns="http://www.w3.org/2000/svg">
<g clip-path="url(#clip0_279_1881)">
<path d="M10.7793 6.60152C10.732 7.66132 10.0065 9.11312 8.60426 10.9555C7.15466 12.8798 5.92792 13.8423 4.92403 13.8423C4.30278 13.8423 3.77683 13.2564 3.34689 12.0839C3.06026 11.0094 2.77295 9.93562 2.48632 8.86112C2.16746 7.68932 1.82529 7.10272 1.45912 7.10272C1.37958 7.10272 1.09981 7.27422 0.621863 7.61582L0.120605 6.95572C0.646548 6.48392 1.16563 6.01142 1.67649 5.53822C2.37866 4.91942 2.90529 4.59322 3.25706 4.56032C4.08678 4.47912 4.59763 5.05872 4.78963 6.29842C4.99672 7.63682 5.14003 8.46912 5.22026 8.79462C5.45958 9.90482 5.72289 10.4592 6.01021 10.4592C6.23375 10.4592 6.56906 10.0987 7.01615 9.37912C7.46255 8.65882 7.70186 8.11072 7.73409 7.73482C7.79786 7.11322 7.55855 6.80172 7.01615 6.80172C6.76038 6.80172 6.49706 6.86122 6.22689 6.98022C6.75078 5.22742 7.75192 4.37552 9.23032 4.42382C10.3261 4.45672 10.8424 5.18262 10.7793 6.60152Z" fill="#4FB9FC"/>
<path d="M15.2783 1.34236C15.2625 1.74836 15.0629 2.13756 14.6789 2.51066C14.2483 2.93206 13.7375 3.14276 13.1471 3.14276C12.2371 3.14276 11.7976 2.73746 11.8298 1.92686C11.8449 1.50546 12.089 1.09946 12.5594 0.710265C13.0305 0.321765 13.553 0.126465 14.1283 0.126465C14.4636 0.126465 14.7427 0.260865 14.9669 0.528265C15.1898 0.795665 15.294 1.06726 15.2783 1.34236ZM17.3615 10.0357C16.9144 10.8981 16.3 11.68 15.5176 12.38C14.4479 13.3243 13.3788 13.7968 12.3091 13.7968C11.8133 13.7968 11.4348 13.6337 11.1715 13.3075C10.9082 12.982 10.7841 12.5592 10.8005 12.0377C10.8156 11.5008 10.9795 10.6699 11.2908 9.54566C11.6021 8.42216 11.7585 7.81947 11.7585 7.73827C11.7585 7.31476 11.6145 7.10266 11.3272 7.10266C11.2319 7.10266 10.9596 7.27417 10.5125 7.61577L9.96191 6.95567C10.4728 6.48387 10.9836 6.01136 11.4945 5.53816C12.1809 4.91936 12.6917 4.59316 13.0277 4.56026C13.5544 4.51196 13.9411 4.67016 14.1887 5.03556C14.4355 5.40166 14.5274 5.87557 14.4643 6.46006C14.2565 7.45056 14.033 8.70846 13.7937 10.2345C13.7772 10.9331 14.0248 11.2817 14.5356 11.2817C14.7592 11.2817 15.1583 11.0409 15.7329 10.5586C16.2122 10.1568 16.6031 9.77876 16.9068 9.42456L17.3615 10.0357Z" fill="#4FB9FC"/>
<path d="M32.3156 10.035C31.8685 10.8981 31.2541 11.6793 30.4717 12.3793C29.402 13.3236 28.3323 13.7961 27.2632 13.7961C26.2251 13.7961 25.7224 13.2102 25.7547 12.037C25.7698 11.5155 25.8699 10.8897 26.0536 10.1568C26.2367 9.42323 26.3368 8.85343 26.3526 8.44603C26.3691 7.82793 26.1846 7.51783 25.7999 7.51783C25.3837 7.51783 24.8872 8.02323 24.3106 9.03333C23.7023 10.0931 23.3732 11.1193 23.3259 12.1133C23.2916 12.8147 23.3602 13.3523 23.5268 13.7268C22.4132 13.7597 21.6328 13.5721 21.1878 13.1647C20.7887 12.8063 20.6063 12.212 20.6386 11.3804C20.6523 10.8589 20.7318 10.3374 20.8738 9.81593C21.0143 9.29443 21.0925 8.83033 21.1083 8.42223C21.1426 7.81953 20.9245 7.51783 20.461 7.51783C20.0612 7.51783 19.6292 7.98263 19.1663 8.91153C18.7028 9.83973 18.447 10.8099 18.399 11.82C18.3647 12.7335 18.4264 13.3684 18.5704 13.7268C17.4747 13.7597 16.6964 13.5238 16.2363 13.0198C15.8536 12.5977 15.6795 11.9558 15.7117 11.0941C15.7254 10.672 15.8002 10.0826 15.9318 9.32733C16.0635 8.57133 16.1368 7.98263 16.1519 7.55983C16.1862 7.26793 16.1108 7.12093 15.9366 7.12093C15.8406 7.12093 15.5691 7.28613 15.122 7.61583L14.5474 6.95573C14.6276 6.89133 15.1295 6.41813 16.0559 5.53823C16.7266 4.90333 17.1812 4.57713 17.4205 4.56103C17.836 4.52813 18.1707 4.70313 18.4264 5.08603C18.6815 5.46893 18.8098 5.91343 18.8098 6.41813C18.8098 6.58123 18.796 6.73593 18.7618 6.88293C19.0011 6.50843 19.2802 6.18153 19.5997 5.90433C20.3341 5.25333 21.1563 4.88583 22.0662 4.80463C22.8486 4.73953 23.4068 4.92643 23.7428 5.36673C24.0136 5.72513 24.1412 6.23893 24.1254 6.90673C24.2372 6.80943 24.3572 6.70303 24.4854 6.58893C24.8516 6.14933 25.2109 5.79933 25.562 5.53823C26.1524 5.09793 26.7682 4.85363 27.4059 4.80463C28.1725 4.73953 28.7231 4.92573 29.0584 5.36463C29.3451 5.72163 29.4733 6.23333 29.4418 6.89833C29.4253 7.35333 29.3176 8.01483 29.1181 8.88353C28.9179 9.75223 28.8191 10.2506 28.8191 10.3808C28.8027 10.7224 28.8349 10.9576 28.9144 11.0871C28.9947 11.2173 29.1853 11.2817 29.4891 11.2817C29.7126 11.2817 30.111 11.0409 30.6863 10.5579C31.165 10.1568 31.5565 9.77883 31.8603 9.42463L32.3156 10.035Z" fill="#4FB9FC"/>
<path d="M35.8593 7.45794C35.8744 7.02044 35.6996 6.80134 35.3334 6.80134C34.8548 6.80134 34.3686 7.13804 33.8749 7.81074C33.3805 8.48344 33.1254 9.12814 33.1096 9.74414C33.1007 9.74414 33.1007 9.84984 33.1096 10.0605C33.8907 9.76864 34.5681 9.32344 35.1421 8.72284C35.6043 8.20414 35.8429 7.78204 35.8593 7.45794ZM41.295 10.0101C40.8321 10.792 39.9222 11.5725 38.5652 12.3537C36.8735 13.3463 35.1565 13.8419 33.4168 13.8419C32.1243 13.8419 31.1972 13.4023 30.639 12.5224C30.2399 11.9197 30.0486 11.2029 30.0644 10.372C30.0801 9.05254 30.6555 7.79814 31.7889 6.60814C33.0335 5.30474 34.5023 4.65234 36.1947 4.65234C37.7595 4.65234 38.5892 5.30334 38.6852 6.60324C38.7489 7.43204 38.3019 8.28604 37.3439 9.16384C36.3222 10.1235 35.0365 10.7325 33.4888 10.9922C33.7755 11.3989 34.2061 11.6019 34.7814 11.6019C35.9307 11.6019 37.1841 11.3037 38.5412 10.7066C39.5149 10.2873 40.2815 9.85194 40.8404 9.40044L41.295 10.0101Z" fill="#4FB9FC"/>
<path d="M45.0889 8.27952C45.1047 7.83852 45.0451 7.43462 44.9093 7.06712C44.7735 6.70032 44.5774 6.51552 44.323 6.51552C43.5084 6.51552 42.8377 6.96492 42.3118 7.86302C41.864 8.59802 41.624 9.38202 41.5932 10.2136C41.5767 10.6224 41.6487 10.9822 41.8085 11.2916C41.9833 11.6514 42.2309 11.8306 42.5511 11.8306C43.2691 11.8306 43.8841 11.3987 44.395 10.5328C44.8256 9.81392 45.0567 9.06282 45.0889 8.27952ZM47.7948 8.37192C47.731 9.86922 47.1886 11.1628 46.1669 12.2527C45.1452 13.3426 43.8752 13.8879 42.3591 13.8879C41.0981 13.8879 40.1401 13.4728 39.486 12.6426C39.0073 12.0245 38.7433 11.2517 38.696 10.3249C38.6151 8.92492 39.1102 7.63972 40.1806 6.46792C41.3299 5.16662 42.774 4.51562 44.5143 4.51562C45.6313 4.51562 46.4775 4.89852 47.0528 5.66292C47.5959 6.36292 47.8428 7.26592 47.7948 8.37192Z" fill="#4FB9FC"/>
</g>
<defs>
<clipPath id="clip0_279_1881">
<rect width="48" height="14" fill="white"/>
</clipPath>
</defs>
</svg>
